<?xml version="1.0" encoding="UTF-8" standalone="no"?>
<!-- Created with Inkscape (http://www.inkscape.org/) -->

<svg
   width="210mm"
   height="297mm"
   viewBox="0 0 210 297"
   version="1.1"
   id="svg1"
   inkscape:version="1.3 (0e150ed, 2023-07-21)"
   sodipodi:docname="パーツ.svg"
   xml:space="preserve"
   xmlns:inkscape="http://www.inkscape.org/namespaces/inkscape"
   xmlns:sodipodi="http://sodipodi.sourceforge.net/DTD/sodipodi-0.dtd"
   xmlns="http://www.w3.org/2000/svg"
   xmlns:svg="http://www.w3.org/2000/svg"><sodipodi:namedview
     id="namedview1"
     pagecolor="#ffffff"
     bordercolor="#000000"
     borderopacity="0.25"
     inkscape:showpageshadow="2"
     inkscape:pageopacity="0.0"
     inkscape:pagecheckerboard="0"
     inkscape:deskcolor="#d1d1d1"
     inkscape:document-units="px"
     showgrid="true"
     inkscape:zoom="1.3968575"
     inkscape:cx="176.46754"
     inkscape:cy="170.38245"
     inkscape:window-width="1600"
     inkscape:window-height="997"
     inkscape:window-x="83"
     inkscape:window-y="25"
     inkscape:window-maximized="1"
     inkscape:current-layer="layer1"><inkscape:grid
       id="grid1"
       units="px"
       originx="0"
       originy="0"
       spacingx="0.26458333"
       spacingy="0.26458334"
       empcolor="#0099e5"
       empopacity="0.30196078"
       color="#0099e5"
       opacity="0.14901961"
       empspacing="4"
       dotted="false"
       gridanglex="30"
       gridanglez="30"
       visible="true" /></sodipodi:namedview><defs
     id="defs1" /><g
     inkscape:label="Layer 1"
     inkscape:groupmode="layer"
     id="layer1"><rect
       style="fill:#000000;stroke-width:0.529167;stroke-linecap:round"
       id="rect1-7"
       width="12.7"
       height="6.3499999"
       x="0"
       y="1.0463257e-07"
       ry="6.3668573e-14"
       inkscape:export-filename="parts.png"
       inkscape:export-xdpi="96"
       inkscape:export-ydpi="96" /><text
       xml:space="preserve"
       style="font-style:normal;font-variant:normal;font-weight:normal;font-stretch:normal;font-size:6.35px;line-height:normal;font-family:'JF Dot jiskan24';-inkscape-font-specification:'JF Dot jiskan24';text-align:start;text-decoration-color:#000000;letter-spacing:0px;text-orientation:upright;text-anchor:start;fill:#ff0000;fill-opacity:1;stroke-width:0.529167;stroke-linecap:round"
       x="0"
       y="5.4570312"
       id="text68"><tspan
         sodipodi:role="line"
         id="tspan68"
         style="font-style:normal;font-variant:normal;font-weight:normal;font-stretch:normal;font-size:6.35px;font-family:'JF Dot jiskan24';-inkscape-font-specification:'JF Dot jiskan24';stroke-width:0.529167;fill:#ff0000"
         x="0"
         y="5.4570312">先発</tspan></text><rect
       style="fill:#000000;stroke-width:0.529167;stroke-linecap:round"
       id="rect1-7-7"
       width="12.7"
       height="6.3499999"
       x="0"
       y="6.3499999"
       ry="6.3668573e-14" /><text
       xml:space="preserve"
       style="font-style:normal;font-variant:normal;font-weight:normal;font-stretch:normal;font-size:6.35px;line-height:normal;font-family:'JF Dot jiskan24';-inkscape-font-specification:'JF Dot jiskan24';text-align:start;text-decoration-color:#000000;letter-spacing:0px;text-orientation:upright;text-anchor:start;fill:#00ff00;fill-opacity:1;stroke-width:0.529167;stroke-linecap:round"
       x="0"
       y="11.807032"
       id="text68-6"><tspan
         sodipodi:role="line"
         id="tspan68-2"
         style="font-style:normal;font-variant:normal;font-weight:normal;font-stretch:normal;font-size:6.35px;font-family:'JF Dot jiskan24';-inkscape-font-specification:'JF Dot jiskan24';fill:#00ff00;stroke-width:0.529167"
         x="0"
         y="11.807032">次発</tspan></text><rect
       style="fill:#000000;stroke-width:0.529167;stroke-linecap:round"
       id="rect1-7-7-3"
       width="31.749998"
       height="6.3500004"
       x="14.816667"
       y="0"
       ry="6.3668573e-14" /><text
       xml:space="preserve"
       style="font-style:normal;font-variant:normal;font-weight:normal;font-stretch:normal;font-size:6.35px;line-height:normal;font-family:'JF Dot jiskan24';-inkscape-font-specification:'JF Dot jiskan24';text-align:start;text-decoration-color:#000000;letter-spacing:0px;text-orientation:upright;text-anchor:start;fill:#00ff00;fill-opacity:1;stroke-width:0.529167;stroke-linecap:round"
       x="14.816667"
       y="5.4570312"
       id="text68-6-6"><tspan
         sodipodi:role="line"
         id="tspan68-2-6"
         style="font-style:normal;font-variant:normal;font-weight:normal;font-stretch:normal;font-size:6.35px;font-family:'JF Dot jiskan24';-inkscape-font-specification:'JF Dot jiskan24';fill:#00ff00;stroke-width:0.529167"
         x="14.816667"
         y="5.4570312">谷　上</tspan></text><rect
       style="fill:#000000;stroke-width:0.529167;stroke-linecap:round"
       id="rect1-7-7-3-00"
       width="31.749998"
       height="6.3500004"
       x="46.566666"
       y="0"
       ry="6.3668573e-14" /><text
       xml:space="preserve"
       style="font-style:normal;font-variant:normal;font-weight:normal;font-stretch:normal;font-size:6.35px;line-height:normal;font-family:'JF Dot jiskan24';-inkscape-font-specification:'JF Dot jiskan24';text-align:start;text-decoration-color:#000000;letter-spacing:0px;text-orientation:upright;text-anchor:start;fill:#00ff00;fill-opacity:1;stroke-width:0.529167;stroke-linecap:round"
       x="46.566666"
       y="5.4570312"
       id="text68-6-6-4"><tspan
         sodipodi:role="line"
         id="tspan68-2-6-5"
         style="font-style:normal;font-variant:normal;font-weight:normal;font-stretch:normal;font-size:6.35px;font-family:'JF Dot jiskan24';-inkscape-font-specification:'JF Dot jiskan24';fill:#00ff00;stroke-width:0.529167"
         x="46.566666"
         y="5.4570312">Tanigami</tspan></text><rect
       style="fill:#000000;stroke-width:0.529167;stroke-linecap:round"
       id="rect1-7-3"
       width="12.7"
       height="6.3499999"
       x="0"
       y="12.7"
       ry="6.3668573e-14" /><text
       xml:space="preserve"
       style="font-style:normal;font-variant:normal;font-weight:normal;font-stretch:normal;font-size:6.35px;line-height:normal;font-family:'JF Dot jiskan24';-inkscape-font-specification:'JF Dot jiskan24';text-align:start;text-decoration-color:#000000;letter-spacing:0px;text-orientation:upright;text-anchor:start;fill:#ff0000;fill-opacity:1;stroke-width:0.529167;stroke-linecap:round"
       x="0"
       y="18.157032"
       id="text68-2"><tspan
         sodipodi:role="line"
         id="tspan68-9"
         style="font-style:normal;font-variant:normal;font-weight:normal;font-stretch:normal;font-size:6.35px;font-family:'JF Dot jiskan24';-inkscape-font-specification:'JF Dot jiskan24';fill:#ff0000;stroke-width:0.529167"
         x="0"
         y="18.157032">最終</tspan></text><rect
       style="fill:#000000;stroke-width:0.529167;stroke-linecap:round"
       id="rect1-7-7-3-0"
       width="31.749998"
       height="6.3500004"
       x="14.816668"
       y="6.3499999"
       ry="6.3668573e-14" /><text
       xml:space="preserve"
       style="font-style:normal;font-variant:normal;font-weight:normal;font-stretch:normal;font-size:6.35px;line-height:normal;font-family:'JF Dot jiskan24';-inkscape-font-specification:'JF Dot jiskan24';text-align:start;text-decoration-color:#000000;letter-spacing:0px;text-orientation:upright;text-anchor:start;fill:#00ff00;fill-opacity:1;stroke-width:0.529167;stroke-linecap:round"
       x="14.816668"
       y="11.807032"
       id="text68-6-6-8"><tspan
         sodipodi:role="line"
         id="tspan68-2-6-9"
         style="font-style:normal;font-variant:normal;font-weight:normal;font-stretch:normal;font-size:6.35px;font-family:'JF Dot jiskan24';-inkscape-font-specification:'JF Dot jiskan24';fill:#00ff00;stroke-width:0.529167"
         x="14.816668"
         y="11.807032">新神戸</tspan></text><rect
       style="fill:#000000;stroke-width:0.529167;stroke-linecap:round"
       id="rect1-7-7-3-4"
       width="31.749998"
       height="6.3500004"
       x="14.816668"
       y="12.7"
       ry="6.3668573e-14" /><text
       xml:space="preserve"
       style="font-style:normal;font-variant:normal;font-weight:normal;font-stretch:normal;font-size:6.35px;line-height:normal;font-family:'JF Dot jiskan24';-inkscape-font-specification:'JF Dot jiskan24';text-align:start;text-decoration-color:#000000;letter-spacing:0px;text-orientation:upright;text-anchor:start;fill:#00ff00;fill-opacity:1;stroke-width:0.529167;stroke-linecap:round"
       x="14.816668"
       y="18.157032"
       id="text68-6-6-5"><tspan
         sodipodi:role="line"
         id="tspan68-2-6-2"
         style="font-style:normal;font-variant:normal;font-weight:normal;font-stretch:normal;font-size:6.35px;font-family:'JF Dot jiskan24';-inkscape-font-specification:'JF Dot jiskan24';fill:#00ff00;stroke-width:0.529167"
         x="14.816668"
         y="18.157032">大倉山</tspan></text><rect
       style="fill:#000000;stroke-width:0.529167;stroke-linecap:round"
       id="rect1-7-7-3-3"
       width="31.749998"
       height="6.3500004"
       x="14.816668"
       y="19.049999"
       ry="6.3668573e-14" /><text
       xml:space="preserve"
       style="font-style:normal;font-variant:normal;font-weight:normal;font-stretch:normal;font-size:6.35px;line-height:normal;font-family:'JF Dot jiskan24';-inkscape-font-specification:'JF Dot jiskan24';text-align:start;text-decoration-color:#000000;letter-spacing:0px;text-orientation:upright;text-anchor:start;fill:#00ff00;fill-opacity:1;stroke-width:0.529167;stroke-linecap:round"
       x="14.816668"
       y="24.50703"
       id="text68-6-6-2"><tspan
         sodipodi:role="line"
         id="tspan68-2-6-3"
         style="font-style:normal;font-variant:normal;font-weight:normal;font-stretch:normal;font-size:6.35px;font-family:'JF Dot jiskan24';-inkscape-font-specification:'JF Dot jiskan24';fill:#00ff00;stroke-width:0.529167"
         x="14.816668"
         y="24.50703">新長田</tspan></text><rect
       style="fill:#000000;stroke-width:0.529167;stroke-linecap:round"
       id="rect1-7-7-3-41"
       width="31.749998"
       height="6.3500004"
       x="14.816668"
       y="25.4"
       ry="6.3668573e-14" /><text
       xml:space="preserve"
       style="font-style:normal;font-variant:normal;font-weight:normal;font-stretch:normal;font-size:6.35px;line-height:normal;font-family:'JF Dot jiskan24';-inkscape-font-specification:'JF Dot jiskan24';text-align:start;text-decoration-color:#000000;letter-spacing:0px;text-orientation:upright;text-anchor:start;fill:#00ff00;fill-opacity:1;stroke-width:0.529167;stroke-linecap:round"
       x="14.816668"
       y="30.857031"
       id="text68-6-6-6"><tspan
         sodipodi:role="line"
         id="tspan68-2-6-1"
         style="font-style:normal;font-variant:normal;font-weight:normal;font-stretch:normal;font-size:6.35px;font-family:'JF Dot jiskan24';-inkscape-font-specification:'JF Dot jiskan24';fill:#00ff00;stroke-width:0.529167"
         x="14.816668"
         y="30.857031">名　谷</tspan></text><rect
       style="fill:#000000;stroke-width:0.529167;stroke-linecap:round"
       id="rect1-7-7-3-7"
       width="31.749998"
       height="6.3500004"
       x="14.816668"
       y="31.75"
       ry="6.3668573e-14" /><text
       xml:space="preserve"
       style="font-style:normal;font-variant:normal;font-weight:normal;font-stretch:normal;font-size:6.35px;line-height:normal;font-family:'JF Dot jiskan24';-inkscape-font-specification:'JF Dot jiskan24';text-align:start;text-decoration-color:#000000;letter-spacing:0px;text-orientation:upright;text-anchor:start;fill:#00ff00;fill-opacity:1;stroke-width:0.529167;stroke-linecap:round"
       x="14.816668"
       y="37.207031"
       id="text68-6-6-9"><tspan
         sodipodi:role="line"
         id="tspan68-2-6-30"
         style="font-style:normal;font-variant:normal;font-weight:normal;font-stretch:normal;font-size:6.35px;font-family:'JF Dot jiskan24';-inkscape-font-specification:'JF Dot jiskan24';fill:#00ff00;stroke-width:0.529167"
         x="14.816668"
         y="37.207031">学園都市</tspan></text><rect
       style="fill:#000000;stroke-width:0.529167;stroke-linecap:round"
       id="rect1-7-7-3-73"
       width="31.749998"
       height="6.3500004"
       x="14.816668"
       y="38.099998"
       ry="6.3668573e-14" /><text
       xml:space="preserve"
       style="font-style:normal;font-variant:normal;font-weight:normal;font-stretch:normal;font-size:6.35px;line-height:normal;font-family:'JF Dot jiskan24';-inkscape-font-specification:'JF Dot jiskan24';text-align:start;text-decoration-color:#000000;letter-spacing:0px;text-orientation:upright;text-anchor:start;fill:#00ff00;fill-opacity:1;stroke-width:0.529167;stroke-linecap:round"
       x="14.816668"
       y="43.55703"
       id="text68-6-6-96"><tspan
         sodipodi:role="line"
         id="tspan68-2-6-4"
         style="font-style:normal;font-variant:normal;font-weight:normal;font-stretch:normal;font-size:6.35px;font-family:'JF Dot jiskan24';-inkscape-font-specification:'JF Dot jiskan24';fill:#00ff00;stroke-width:0.529167"
         x="14.816668"
         y="43.55703">西神中央</tspan></text><rect
       style="fill:#000000;stroke-width:0.529167;stroke-linecap:round"
       id="rect1-7-7-3-00-6"
       width="31.749998"
       height="6.3500004"
       x="46.566669"
       y="6.3499999"
       ry="6.3668573e-14" /><text
       xml:space="preserve"
       style="font-style:normal;font-variant:normal;font-weight:normal;font-stretch:normal;font-size:6.35px;line-height:normal;font-family:'JF Dot jiskan24';-inkscape-font-specification:'JF Dot jiskan24';text-align:start;text-decoration-color:#000000;letter-spacing:0px;text-orientation:upright;text-anchor:start;fill:#00ff00;fill-opacity:1;stroke-width:0.529167;stroke-linecap:round"
       x="46.566669"
       y="11.807032"
       id="text68-6-6-4-2"><tspan
         sodipodi:role="line"
         id="tspan68-2-6-5-5"
         style="font-style:normal;font-variant:normal;font-weight:normal;font-stretch:normal;font-size:6.35px;font-family:'JF Dot jiskan24';-inkscape-font-specification:'JF Dot jiskan24';fill:#00ff00;stroke-width:0.529167"
         x="46.566669"
         y="11.807032">Shinkobe</tspan></text><rect
       style="fill:#000000;stroke-width:0.529167;stroke-linecap:round"
       id="rect1-7-7-3-00-8"
       width="31.749998"
       height="6.3500004"
       x="46.566669"
       y="12.7"
       ry="6.3668573e-14" /><text
       xml:space="preserve"
       style="font-style:normal;font-variant:normal;font-weight:normal;font-stretch:normal;font-size:6.35px;line-height:normal;font-family:'JF Dot jiskan24';-inkscape-font-specification:'JF Dot jiskan24';text-align:start;text-decoration-color:#000000;letter-spacing:0px;text-orientation:upright;text-anchor:start;fill:#00ff00;fill-opacity:1;stroke-width:0.529167;stroke-linecap:round"
       x="46.566669"
       y="18.157032"
       id="text68-6-6-4-4"><tspan
         sodipodi:role="line"
         id="tspan68-2-6-5-0"
         style="font-style:normal;font-variant:normal;font-weight:normal;font-stretch:normal;font-size:6.35px;font-family:'JF Dot jiskan24';-inkscape-font-specification:'JF Dot jiskan24';fill:#00ff00;stroke-width:0.529167"
         x="46.566669"
         y="18.157032">Okurayama</tspan></text><rect
       style="fill:#000000;stroke-width:0.529167;stroke-linecap:round"
       id="rect1-7-7-3-00-2"
       width="31.749998"
       height="6.3500004"
       x="46.566669"
       y="19.049999"
       ry="6.3668573e-14" /><text
       xml:space="preserve"
       style="font-style:normal;font-variant:normal;font-weight:normal;font-stretch:normal;font-size:6.35px;line-height:normal;font-family:'JF Dot jiskan24';-inkscape-font-specification:'JF Dot jiskan24';text-align:start;text-decoration-color:#000000;letter-spacing:0px;text-orientation:upright;text-anchor:start;fill:#00ff00;fill-opacity:1;stroke-width:0.529167;stroke-linecap:round"
       x="46.566669"
       y="24.50703"
       id="text68-6-6-4-27"><tspan
         sodipodi:role="line"
         id="tspan68-2-6-5-4"
         style="font-style:normal;font-variant:normal;font-weight:normal;font-stretch:normal;font-size:6.35px;font-family:'JF Dot jiskan24';-inkscape-font-specification:'JF Dot jiskan24';fill:#00ff00;stroke-width:0.529167"
         x="46.566669"
         y="24.50703">Shinnagata</tspan></text><rect
       style="fill:#000000;stroke-width:0.529167;stroke-linecap:round"
       id="rect1-7-7-3-00-3"
       width="31.749998"
       height="6.3500004"
       x="46.566669"
       y="25.4"
       ry="6.3668573e-14" /><text
       xml:space="preserve"
       style="font-style:normal;font-variant:normal;font-weight:normal;font-stretch:normal;font-size:6.35px;line-height:normal;font-family:'JF Dot jiskan24';-inkscape-font-specification:'JF Dot jiskan24';text-align:start;text-decoration-color:#000000;letter-spacing:0px;text-orientation:upright;text-anchor:start;fill:#00ff00;fill-opacity:1;stroke-width:0.529167;stroke-linecap:round"
       x="46.566669"
       y="30.857031"
       id="text68-6-6-4-8"><tspan
         sodipodi:role="line"
         id="tspan68-2-6-5-9"
         style="font-style:normal;font-variant:normal;font-weight:normal;font-stretch:normal;font-size:6.35px;font-family:'JF Dot jiskan24';-inkscape-font-specification:'JF Dot jiskan24';fill:#00ff00;stroke-width:0.529167"
         x="46.566669"
         y="30.857031">Myodani</tspan></text><rect
       style="fill:#000000;stroke-width:0.529167;stroke-linecap:round"
       id="rect1-7-7-3-00-5"
       width="31.749998"
       height="6.3500004"
       x="46.566669"
       y="31.75"
       ry="6.3668573e-14" /><path
       id="text68-6-6-4-7"
       style="font-style:normal;font-variant:normal;font-weight:normal;font-stretch:normal;font-size:6.35px;line-height:normal;font-family:'JF Dot jiskan24';-inkscape-font-specification:'JF Dot jiskan24';text-align:start;text-decoration-color:#000000;letter-spacing:0px;text-orientation:upright;text-anchor:start;fill:#00ff00;fill-opacity:1;stroke-width:0.529167;stroke-linecap:round"
       d="m 47.627067,32.2771 v 0.26665 h 0.79375 V 32.2771 Z m 0.79375,0.26665 v 0.26665 h 0.260449 v 0.26045 h 0.266651 v 0.26665 h 0.26665 v -1.0604 h -0.26665 v 0.26665 z m -0.79375,0 h -0.533301 v 0.26665 h -0.260449 v 0.5271 h -0.26665 v 2.90835 h 0.26665 v 0.5333 h 0.260449 v 0.26045 h 0.533301 v -0.26045 h -0.26665 v -0.5333 H 47.093766 V 33.3375 h 0.266651 v -0.5271 h 0.26665 z m 0,4.49585 v 0.26665 h 0.79375 V 37.0396 Z m 0.79375,0 h 0.5271 v 0.26665 h 0.26665 v -2.1146 h 0.260449 V 34.925 h -1.320849 v 0.26665 h 0.527099 v 1.5875 h -0.260449 z m 4.499982,-4.762499 v 0.26665 h -0.26665 v 0.26665 h 0.26665 v 4.2292 h -0.26665 v 0.26665 h 1.0604 v -0.26665 h -0.26665 v -1.32085 h 0.26665 v 0.26665 h 0.260449 v 0.26045 h 0.266651 v 0.26665 h 0.26665 v 0.26665 h 0.260449 v 0.26045 h -0.260449 v 0.26665 h 1.054199 v -0.26665 h -0.260449 v -0.26045 h -0.26665 v -0.26665 h -0.266651 v -0.26665 h -0.260449 v -0.26045 h -0.26665 v -0.26665 h -0.266651 v -0.5271 h -0.260449 v 0.26045 h -0.26665 v -3.175 z m 1.054199,2.91455 h 0.266651 v -0.26665 h -0.266651 z m 0.266651,-0.26665 h 0.26665 v -0.26665 h -0.26665 z m 0.26665,-0.26665 h 0.260449 v -0.26045 h -0.260449 z m 0.260449,-0.26045 h 0.266651 v -0.26665 h 0.527099 v -0.26665 h -1.054199 v 0.26665 h 0.260449 z m 10.849983,-2.1208 v 1.5875 h -0.79375 v 0.26665 h 0.79375 v 2.6479 h 0.26665 v 0.26045 h 0.260449 v 0.26665 h 0.793756 v -0.26665 h -0.527105 v -0.26045 H 66.14583 v -2.6479 h 0.793756 v -0.26665 H 66.14583 v -1.5875 z m 1.320855,4.7625 h 0.26665 v -0.26045 h -0.26665 z m 0.26665,-0.26045 h 0.260449 v -0.5333 h -0.260449 z m 6.614584,-4.50205 v 0.26665 h -0.26665 v 0.26665 h 0.26665 v 4.2292 h -0.26665 v 0.26665 h 1.0604 v -0.26665 h -0.26665 v -2.6417 h 0.26665 v -0.26665 h -0.26665 v -1.85415 z m 0.79375,1.85415 h 0.79375 v 0.26665 h 0.260449 v 2.6417 H 75.40832 v 0.26665 h 1.054199 v -0.26665 H 76.20207 v -2.6417 h -0.26665 v -0.26665 h -0.266651 v -0.26665 H 74.61457 Z m 2.381249,-1.85415 v 0.79375 h 0.79375 v -0.79375 z m -26.72292,1.5875 v 0.26665 h -0.5271 v 0.5271 h 0.260449 v -0.26045 h 0.533301 v -0.26665 h 0.5271 v -0.26665 z m 0.79375,0.26665 v 0.26665 h 0.26665 v 0.79375 h -1.0604 v 0.26045 h 1.0604 v 1.32705 h -0.26665 v 0.26045 h 0.527099 v 0.26665 h 0.533301 v -0.26665 h -0.26665 v -2.6417 h -0.266651 v -0.26665 z m 1.0604,2.90835 h 0.260449 v -0.5271 h -0.260449 z m -1.0604,0 h -0.79375 v -0.26045 h -0.266651 v -1.0604 h 0.266651 v -0.26665 h -0.5271 v 0.26665 h -0.26665 v 1.0604 h 0.26665 v 0.26045 h 0.260449 v 0.26665 h 1.060401 z m 5.02915,-3.175 v 0.26665 h -0.26665 v 0.26665 h 0.26665 v 2.38125 h 0.260449 v 0.26045 h 0.266651 v 0.26665 h 0.79375 v -0.26665 h -0.5271 v -0.26045 h -0.26665 v -2.91455 z m 1.32085,3.175 h 0.527099 v 0.26665 h 0.79375 v -0.26665 h -0.260449 v -3.175 h -0.533301 v 0.26665 h -0.260449 v 0.26665 h 0.260449 v 2.38125 h -0.527099 z m 2.6479,-3.175 v 0.26665 h 0.529167 v -0.26665 z m 0.529167,0.26665 v 0.26665 h 0.260449 v 0.5271 h 0.266651 v 0.26665 h -1.589568 v -0.26665 h 0.266651 v -0.5271 h 0.26665 v -0.26665 h -0.533301 v 0.26665 h -0.260449 v 0.5271 h -0.26665 v 1.32085 h 0.26665 v 0.5333 h 0.260449 v 0.26045 h 0.533301 v -0.26045 h -0.26665 v -0.5333 h -0.266651 v -0.79375 h 2.116667 v -0.79375 h -0.260449 v -0.26045 h -0.26665 v -0.26665 z m -0.529167,2.90835 v 0.26665 h 0.789616 v -0.26665 z m 0.789616,0 h 0.533301 v -0.26045 h -0.533301 z m 0.533301,-0.26045 h 0.260449 v -0.26665 h -0.260449 z m 0.79375,-2.91455 v 0.26665 h -0.26665 v 0.26665 h 0.26665 v 2.6417 h -0.26665 v 0.26665 h 1.0604 v -0.26665 h -0.26665 v -2.6417 h 0.527099 v -0.26665 h -0.527099 v -0.26665 z m 1.054199,0.26665 h 0.533301 v -0.26665 h -0.533301 z m 0.533301,0 v 0.26665 h 0.260449 v 2.6417 h -0.260449 v 0.26665 h 1.054199 v -0.26665 h -0.260449 v -2.6417 h -0.26665 v -0.26665 z m 5.02502,-0.26665 v 0.26665 h 0.52917 v -0.26665 z m 0.52917,0.26665 v 0.26665 h 0.260449 v 0.26045 h 0.266651 v 1.85415 h -0.266651 v 0.26665 h -0.260449 v 0.26045 h 0.5271 v -0.26045 h 0.26665 v -0.5333 h 0.260449 v -1.32085 h -0.260449 v -0.5271 h -0.26665 v -0.26665 z m 0,2.90835 h -0.52917 v 0.26665 h 0.52917 z m -0.52917,0 v -0.26045 h -0.26665 v -0.26665 h -0.266651 v -1.85415 h 0.266651 v -0.26045 h 0.26665 v -0.26665 h -0.533301 v 0.26665 h -0.260449 v 0.5271 h -0.26665 v 1.32085 h 0.26665 v 0.5333 h 0.260449 v 0.26045 z m 2.64377,-3.175 v 0.26665 h 1.0604 v -0.26665 z m 1.0604,0.26665 v 0.26665 h 0.260449 v 0.26045 h 0.266651 v 0.26665 h 0.26665 v -1.0604 h -0.26665 v 0.26665 z m -1.0604,0 h -0.5271 v 0.26665 h -0.26665 v 0.79375 h 0.26665 v 0.26045 h 0.5271 v 0.26665 h 0.79375 v 0.26665 h 0.527099 v 0.26045 h 0.266651 v 0.5333 h -0.266651 v 0.26045 h 0.533301 v -0.26045 h 0.260449 v -0.79375 h -0.260449 v -0.26665 h -0.26665 v -0.26665 h -0.79375 v -0.26045 h -0.79375 v -0.26665 h -0.266651 v -0.5271 h 0.266651 z m 1.320849,2.90835 h -1.320849 v 0.26665 h 1.320849 z m -1.320849,0 v -0.26045 h -0.266651 v -0.26665 h -0.260449 v -0.26665 h -0.26665 v 1.0604 h 0.26665 v -0.26665 z m 5.291662,-3.175 v 0.26665 h 0.533301 v 2.90835 h -0.533301 v 0.26665 h 1.5875 v -0.26665 h -0.527099 v -3.175 z"
       sodipodi:nodetypes="cccccccccccccccccccccccccccccccccccccccccccccccccccccccccccccccccccccccccccccccccccccccccccccccccccccccccccccccccccccccccccccccccccccccccccccccccccccccccccccccccccccccccccccccccccccccccccccccccccccccccccccccccccccccccccccccccccccccccccccccccccccccccccccccccccccccccccccccccccccccccccccccccccccccccccccccccccccccccccccccccccccccccccccccccccccccccccccccccccccccccccccccccccccccccccccccccccccccccccccccccccccccccccccccccccccccccccccccccccccccccccccccccccccccccccccccccccccccccccccccccccccccccccccc" /><rect
       style="fill:#000000;stroke-width:0.529167;stroke-linecap:round"
       id="rect1-7-7-3-00-9"
       width="31.749998"
       height="6.3500004"
       x="46.566669"
       y="38.099998"
       ry="6.3668573e-14" /><path
       id="text68-6-6-4-9"
       style="font-style:normal;font-variant:normal;font-weight:normal;font-stretch:normal;font-size:6.35px;line-height:normal;font-family:'JF Dot jiskan24';-inkscape-font-specification:'JF Dot jiskan24';text-align:start;text-decoration-color:#000000;letter-spacing:0px;text-orientation:upright;text-anchor:start;fill:#00ff00;fill-opacity:1;stroke-width:0.529167;stroke-linecap:round"
       d="m 47.360417,38.6271 v 0.26665 h 1.0604 V 38.6271 Z m 1.0604,0.26665 v 0.26665 h 0.260449 v 0.26045 h 0.266651 v 0.26665 h 0.26665 v -1.0604 h -0.26665 v 0.26665 z m -1.0604,0 h -0.5271 v 0.26665 h -0.26665 v 1.32085 h 0.26665 v 0.26665 h 0.260449 v 0.26045 h 0.533301 V 41.275 h 0.79375 v 0.26665 h 0.260449 v 0.26045 h 0.266651 v 1.0604 h -0.266651 v 0.266651 H 48.420817 V 43.3896 h 0.5271 v -0.260449 h 0.26665 V 42.8625 h 0.260449 V 41.54165 H 49.214567 V 41.275 h -0.26665 v -0.26665 h -0.5271 V 40.7479 h -0.79375 v -0.26665 h -0.26665 V 40.2146 h -0.266651 v -1.0542 h 0.266651 z m 1.0604,4.49585 h -1.0604 v 0.26665 h 1.0604 z m -1.0604,0 V 43.129151 H 47.093766 V 42.8625 h -0.260449 v -0.26665 h -0.26665 v 1.0604 h 0.26665 V 43.3896 Z m 5.822899,-4.7625 v 0.79375 h 0.79375 V 38.6271 Z m 4.760432,0 v 0.26665 h -0.26665 v 0.26665 h 0.26665 v 4.2292 h -0.26665 v 0.26665 h 1.0604 V 43.3896 h -0.26665 v -2.6417 h 0.26665 v -0.26665 h -0.26665 V 38.6271 Z m 0.79375,1.85415 h 0.79375 v 0.26665 h 0.260449 v 2.6417 h -0.260449 v 0.26665 h 1.054199 V 43.3896 h -0.260449 v -2.6417 h -0.26665 V 40.48125 H 59.791697 V 40.2146 h -1.054199 z m 2.38125,-1.85415 v 0.79375 h 0.79375 V 38.6271 Z m 8.202083,0 v 0.26665 h -0.26665 v 0.26665 h 0.26665 v 4.2292 h -0.26665 v 0.26665 h 1.0604 V 43.3896 h -0.26665 v -2.6417 h 0.26665 v -0.26665 h -0.26665 V 38.6271 Z m 0.79375,1.85415 h 0.79375 v 0.26665 h 0.260449 v 2.6417 h -0.260449 v 0.26665 H 71.96253 V 43.3896 h -0.260449 v -2.6417 h -0.26665 V 40.48125 H 71.16878 V 40.2146 H 70.114581 Z M 50.802067,40.2146 v 0.26665 h 0.79375 V 40.2146 Z m 0.79375,0.26665 v 0.26665 h 0.260449 v 0.5271 h 0.266651 v 0.26665 H 50.268766 V 41.275 h 0.266651 v -0.5271 h 0.26665 v -0.26665 h -0.533301 v 0.26665 h -0.260449 v 0.5271 h -0.26665 v 1.32085 h 0.26665 v 0.533301 h 0.260449 V 43.3896 h 0.533301 v -0.260449 h -0.26665 V 42.59585 H 50.268766 V 41.8021 h 2.38125 V 41.00835 H 52.389567 V 40.7479 h -0.26665 v -0.26665 z m -0.79375,2.90835 v 0.26665 h 1.054199 V 43.3896 Z m 1.054199,0 h 0.533301 v -0.260449 h -0.533301 z m 0.533301,-0.260449 h 0.260449 V 42.8625 H 52.389567 Z M 52.916665,40.2146 v 0.26665 h 0.533301 v 2.90835 h -0.533301 v 0.26665 h 1.5875 V 43.3896 h -0.527099 v -3.175 z m 2.645834,0 v 0.26665 h 1.0604 V 40.2146 Z m 1.0604,0.26665 v 0.26665 h 0.260449 v 0.26045 h 0.266651 V 41.275 h 0.26665 v -1.0604 h -0.26665 v 0.26665 z m -1.0604,0 h -0.5271 v 0.26665 h -0.26665 v 0.79375 h 0.26665 v 0.26045 h 0.5271 v 0.26665 h 0.79375 v 0.266651 h 0.527099 v 0.260449 h 0.266651 v 0.533301 H 56.883348 V 43.3896 h 0.533301 v -0.260449 h 0.260449 v -0.79375 H 57.416649 V 42.06875 h -0.26665 V 41.8021 h -0.79375 v -0.26045 h -0.79375 V 41.275 h -0.266651 v -0.5271 h 0.266651 z m 1.320849,2.90835 h -1.320849 v 0.26665 h 1.320849 z m -1.320849,0 V 43.129151 H 55.295848 V 42.8625 h -0.260449 v -0.26665 h -0.26665 v 1.0604 h 0.26665 V 43.3896 Z m 5.289598,-3.175 v 0.26665 h 0.533301 v 2.90835 h -0.533301 v 0.26665 h 1.5875 V 43.3896 h -0.527099 v -3.175 z m 2.118734,0 v 0.26665 h -0.26665 v 0.26665 h 0.26665 v 2.6417 h -0.26665 v 0.26665 h 1.0604 V 43.3896 h -0.26665 V 40.7479 H 64.02503 V 40.48125 H 63.497931 V 40.2146 Z m 1.054199,0.26665 h 0.533301 V 40.2146 H 64.02503 Z m 0.533301,0 v 0.26665 h 0.260449 v 2.6417 h -0.260449 v 0.26665 H 65.61253 V 43.3896 h -0.260449 v -2.6417 h -0.26665 v -0.26665 z m 2.38125,-0.26665 v 0.26665 h 0.79375 V 40.2146 Z m 0.79375,0.26665 v 0.26665 h 0.260449 v 0.5271 h 0.533301 v -0.5271 h -0.26665 v -0.26665 z m -0.79375,0 H 66.40628 v 0.26665 h -0.260449 v 0.5271 h -0.26665 v 1.32085 h 0.26665 v 0.533301 H 66.40628 V 43.3896 h 0.533301 v -0.260449 h -0.26665 V 42.59585 H 66.40628 V 41.275 h 0.266651 v -0.5271 h 0.26665 z m 0,2.90835 v 0.26665 h 0.79375 V 43.3896 Z m 0.79375,0 h 0.5271 v -0.260449 h -0.5271 z m 0.5271,-0.260449 h 0.26665 V 42.8625 h -0.26665 z m 4.2354,-2.914551 v 0.26665 h -0.26665 v 0.26665 h 0.26665 v 2.381251 H 72.75628 V 43.3896 h 0.266651 v 0.26665 h 0.79375 V 43.3896 h -0.5271 v -0.260449 h -0.26665 V 40.2146 Z m 1.32085,3.175 h 0.527099 v 0.26665 h 0.79375 V 43.3896 h -0.260449 v -3.175 H 74.34378 v 0.26665 h -0.260449 v 0.26665 h 0.260449 v 2.381251 h -0.527099 z m 2.6479,-3.175 v 0.26665 h 0.79375 V 40.2146 Z m 0.79375,0.26665 v 0.26665 h 0.260449 v 0.26045 h 0.266651 V 42.8625 H 77.51878 v 0.266651 H 77.258331 V 43.3896 h 0.5271 v -0.260449 h 0.26665 V 42.59585 H 78.31253 V 41.275 h -0.260449 v -0.5271 h -0.26665 v -0.26665 z m 0,2.90835 h -0.79375 v 0.26665 h 0.79375 z m -0.79375,0 v -0.260449 h -0.26665 V 42.8625 H 75.93128 v -1.85415 h 0.266651 V 40.7479 h 0.26665 V 40.48125 H 75.93128 v 0.26665 h -0.260449 v 0.5271 h -0.26665 v 1.32085 h 0.26665 v 0.533301 H 75.93128 V 43.3896 Z"
       sodipodi:nodetypes="cccccccccccccccccccccccccccccccccccccccccccccccccccccccccccccccccccccccccccccccccccccccccccccccccccccccccccccccccccccccccccccccccccccccccccccccccccccccccccccccccccccccccccccccccccccccccccccccccccccccccccccccccccccccccccccccccccccccccccccccccccccccccccccccccccccccccccccccccccccccccccccccccccccccccccccccccccccccccccccccccccccccccccccccccccccccccccccccccccccccccccccccccccccccccccccccccccccccccccccccccccccccccccccccccccccccccccccccccccccccccccccccccccccccccccccc" /><rect
       style="fill:#000000;stroke-width:0.529167;stroke-linecap:round"
       id="rect1-7-74"
       width="3.1749966"
       height="6.3499999"
       x="80.433334"
       y="1.0463257e-07"
       ry="6.3668573e-14" /><text
       xml:space="preserve"
       style="font-style:normal;font-variant:normal;font-weight:normal;font-stretch:normal;font-size:6.35px;line-height:normal;font-family:'JF Dot jiskan24';-inkscape-font-specification:'JF Dot jiskan24';text-align:start;text-decoration-color:#000000;letter-spacing:0px;text-orientation:upright;text-anchor:start;fill:#ff6600;fill-opacity:1;stroke-width:0.529167;stroke-linecap:round"
       x="80.433334"
       y="5.4570312"
       id="text68-1"><tspan
         sodipodi:role="line"
         id="tspan68-8"
         style="font-style:normal;font-variant:normal;font-weight:normal;font-stretch:normal;font-size:6.35px;font-family:'JF Dot jiskan24';-inkscape-font-specification:'JF Dot jiskan24';fill:#ff6600;stroke-width:0.529167"
         x="80.433334"
         y="5.4570312">0</tspan></text><rect
       style="fill:#000000;stroke-width:0.529167;stroke-linecap:round"
       id="rect1-7-74-02"
       width="3.1749966"
       height="6.3499999"
       x="84.666664"
       y="1.0463257e-07"
       ry="6.3668573e-14" /><text
       xml:space="preserve"
       style="font-style:normal;font-variant:normal;font-weight:normal;font-stretch:normal;font-size:6.35px;line-height:normal;font-family:'JF Dot jiskan24';-inkscape-font-specification:'JF Dot jiskan24';text-align:start;text-decoration-color:#000000;letter-spacing:0px;text-orientation:upright;text-anchor:start;fill:#ff6600;fill-opacity:1;stroke-width:0.529167;stroke-linecap:round"
       x="84.666664"
       y="5.4570312"
       id="text68-1-50"><tspan
         sodipodi:role="line"
         id="tspan68-8-21"
         style="font-style:normal;font-variant:normal;font-weight:normal;font-stretch:normal;font-size:6.35px;font-family:'JF Dot jiskan24';-inkscape-font-specification:'JF Dot jiskan24';fill:#ff6600;stroke-width:0.529167"
         x="84.666664"
         y="5.4570312">:</tspan></text><rect
       style="fill:#000000;stroke-width:0.529167;stroke-linecap:round"
       id="rect1-7-74-4"
       width="3.1749966"
       height="6.3499999"
       x="80.433334"
       y="6.3499999"
       ry="6.3668573e-14" /><text
       xml:space="preserve"
       style="font-style:normal;font-variant:normal;font-weight:normal;font-stretch:normal;font-size:6.35px;line-height:normal;font-family:'JF Dot jiskan24';-inkscape-font-specification:'JF Dot jiskan24';text-align:start;text-decoration-color:#000000;letter-spacing:0px;text-orientation:upright;text-anchor:start;fill:#ff6600;fill-opacity:1;stroke-width:0.529167;stroke-linecap:round"
       x="80.433334"
       y="11.807032"
       id="text68-1-8"><tspan
         sodipodi:role="line"
         id="tspan68-8-0"
         style="font-style:normal;font-variant:normal;font-weight:normal;font-stretch:normal;font-size:6.35px;font-family:'JF Dot jiskan24';-inkscape-font-specification:'JF Dot jiskan24';fill:#ff6600;stroke-width:0.529167"
         x="80.433334"
         y="11.807032">1</tspan></text><rect
       style="fill:#000000;stroke-width:0.529167;stroke-linecap:round"
       id="rect1-7-74-5"
       width="3.1749966"
       height="6.3499999"
       x="80.433334"
       y="12.7"
       ry="6.3668573e-14" /><text
       xml:space="preserve"
       style="font-style:normal;font-variant:normal;font-weight:normal;font-stretch:normal;font-size:6.35px;line-height:normal;font-family:'JF Dot jiskan24';-inkscape-font-specification:'JF Dot jiskan24';text-align:start;text-decoration-color:#000000;letter-spacing:0px;text-orientation:upright;text-anchor:start;fill:#ff6600;fill-opacity:1;stroke-width:0.529167;stroke-linecap:round"
       x="80.433334"
       y="18.157032"
       id="text68-1-1"><tspan
         sodipodi:role="line"
         id="tspan68-8-1"
         style="font-style:normal;font-variant:normal;font-weight:normal;font-stretch:normal;font-size:6.35px;font-family:'JF Dot jiskan24';-inkscape-font-specification:'JF Dot jiskan24';fill:#ff6600;stroke-width:0.529167"
         x="80.433334"
         y="18.157032">2</tspan></text><rect
       style="fill:#000000;stroke-width:0.529167;stroke-linecap:round"
       id="rect1-7-74-45"
       width="3.1749966"
       height="6.3499999"
       x="80.433334"
       y="19.049999"
       ry="6.3668573e-14" /><text
       xml:space="preserve"
       style="font-style:normal;font-variant:normal;font-weight:normal;font-stretch:normal;font-size:6.35px;line-height:normal;font-family:'JF Dot jiskan24';-inkscape-font-specification:'JF Dot jiskan24';text-align:start;text-decoration-color:#000000;letter-spacing:0px;text-orientation:upright;text-anchor:start;fill:#ff6600;fill-opacity:1;stroke-width:0.529167;stroke-linecap:round"
       x="80.433334"
       y="24.50703"
       id="text68-1-14"><tspan
         sodipodi:role="line"
         id="tspan68-8-2"
         style="font-style:normal;font-variant:normal;font-weight:normal;font-stretch:normal;font-size:6.35px;font-family:'JF Dot jiskan24';-inkscape-font-specification:'JF Dot jiskan24';fill:#ff6600;stroke-width:0.529167"
         x="80.433334"
         y="24.50703">3</tspan></text><rect
       style="fill:#000000;stroke-width:0.529167;stroke-linecap:round"
       id="rect1-7-74-0"
       width="3.1749966"
       height="6.3499999"
       x="80.433334"
       y="25.4"
       ry="6.3668573e-14" /><text
       xml:space="preserve"
       style="font-style:normal;font-variant:normal;font-weight:normal;font-stretch:normal;font-size:6.35px;line-height:normal;font-family:'JF Dot jiskan24';-inkscape-font-specification:'JF Dot jiskan24';text-align:start;text-decoration-color:#000000;letter-spacing:0px;text-orientation:upright;text-anchor:start;fill:#ff6600;fill-opacity:1;stroke-width:0.529167;stroke-linecap:round"
       x="80.433334"
       y="30.857031"
       id="text68-1-5"><tspan
         sodipodi:role="line"
         id="tspan68-8-9"
         style="font-style:normal;font-variant:normal;font-weight:normal;font-stretch:normal;font-size:6.35px;font-family:'JF Dot jiskan24';-inkscape-font-specification:'JF Dot jiskan24';fill:#ff6600;stroke-width:0.529167"
         x="80.433334"
         y="30.857031">4</tspan></text><rect
       style="fill:#000000;stroke-width:0.529167;stroke-linecap:round"
       id="rect1-7-74-44"
       width="3.1749966"
       height="6.3499999"
       x="80.433334"
       y="31.75"
       ry="6.3668573e-14" /><text
       xml:space="preserve"
       style="font-style:normal;font-variant:normal;font-weight:normal;font-stretch:normal;font-size:6.35px;line-height:normal;font-family:'JF Dot jiskan24';-inkscape-font-specification:'JF Dot jiskan24';text-align:start;text-decoration-color:#000000;letter-spacing:0px;text-orientation:upright;text-anchor:start;fill:#ff6600;fill-opacity:1;stroke-width:0.529167;stroke-linecap:round"
       x="80.433334"
       y="37.207031"
       id="text68-1-4"><tspan
         sodipodi:role="line"
         id="tspan68-8-3"
         style="font-style:normal;font-variant:normal;font-weight:normal;font-stretch:normal;font-size:6.35px;font-family:'JF Dot jiskan24';-inkscape-font-specification:'JF Dot jiskan24';fill:#ff6600;stroke-width:0.529167"
         x="80.433334"
         y="37.207031">5</tspan></text><rect
       style="fill:#000000;stroke-width:0.529167;stroke-linecap:round"
       id="rect1-7-74-7"
       width="3.1749966"
       height="6.3499999"
       x="80.433334"
       y="38.099998"
       ry="6.3668573e-14" /><text
       xml:space="preserve"
       style="font-style:normal;font-variant:normal;font-weight:normal;font-stretch:normal;font-size:6.35px;line-height:normal;font-family:'JF Dot jiskan24';-inkscape-font-specification:'JF Dot jiskan24';text-align:start;text-decoration-color:#000000;letter-spacing:0px;text-orientation:upright;text-anchor:start;fill:#ff6600;fill-opacity:1;stroke-width:0.529167;stroke-linecap:round"
       x="80.433334"
       y="43.55703"
       id="text68-1-2"><tspan
         sodipodi:role="line"
         id="tspan68-8-4"
         style="font-style:normal;font-variant:normal;font-weight:normal;font-stretch:normal;font-size:6.35px;font-family:'JF Dot jiskan24';-inkscape-font-specification:'JF Dot jiskan24';fill:#ff6600;stroke-width:0.529167"
         x="80.433334"
         y="43.55703">6</tspan></text><rect
       style="fill:#000000;stroke-width:0.529167;stroke-linecap:round"
       id="rect1-7-74-3"
       width="3.1749966"
       height="6.3499999"
       x="80.433334"
       y="44.450001"
       ry="6.3668573e-14" /><text
       xml:space="preserve"
       style="font-style:normal;font-variant:normal;font-weight:normal;font-stretch:normal;font-size:6.35px;line-height:normal;font-family:'JF Dot jiskan24';-inkscape-font-specification:'JF Dot jiskan24';text-align:start;text-decoration-color:#000000;letter-spacing:0px;text-orientation:upright;text-anchor:start;fill:#ff6600;fill-opacity:1;stroke-width:0.529167;stroke-linecap:round"
       x="80.433334"
       y="49.907032"
       id="text68-1-7"><tspan
         sodipodi:role="line"
         id="tspan68-8-00"
         style="font-style:normal;font-variant:normal;font-weight:normal;font-stretch:normal;font-size:6.35px;font-family:'JF Dot jiskan24';-inkscape-font-specification:'JF Dot jiskan24';fill:#ff6600;stroke-width:0.529167"
         x="80.433334"
         y="49.907032">7</tspan></text><rect
       style="fill:#000000;stroke-width:0.529167;stroke-linecap:round"
       id="rect1-7-74-58"
       width="3.1749966"
       height="6.3499999"
       x="80.433334"
       y="50.799999"
       ry="6.3668573e-14" /><text
       xml:space="preserve"
       style="font-style:normal;font-variant:normal;font-weight:normal;font-stretch:normal;font-size:6.35px;line-height:normal;font-family:'JF Dot jiskan24';-inkscape-font-specification:'JF Dot jiskan24';text-align:start;text-decoration-color:#000000;letter-spacing:0px;text-orientation:upright;text-anchor:start;fill:#ff6600;fill-opacity:1;stroke-width:0.529167;stroke-linecap:round"
       x="80.433334"
       y="56.25703"
       id="text68-1-6"><tspan
         sodipodi:role="line"
         id="tspan68-8-14"
         style="font-style:normal;font-variant:normal;font-weight:normal;font-stretch:normal;font-size:6.35px;font-family:'JF Dot jiskan24';-inkscape-font-specification:'JF Dot jiskan24';fill:#ff6600;stroke-width:0.529167"
         x="80.433334"
         y="56.25703">8</tspan></text><rect
       style="fill:#000000;stroke-width:0.529167;stroke-linecap:round"
       id="rect1-7-74-6"
       width="3.1749966"
       height="6.3499999"
       x="80.433334"
       y="57.150002"
       ry="6.3668573e-14" /><text
       xml:space="preserve"
       style="font-style:normal;font-variant:normal;font-weight:normal;font-stretch:normal;font-size:6.35px;line-height:normal;font-family:'JF Dot jiskan24';-inkscape-font-specification:'JF Dot jiskan24';text-align:start;text-decoration-color:#000000;letter-spacing:0px;text-orientation:upright;text-anchor:start;fill:#ff6600;fill-opacity:1;stroke-width:0.529167;stroke-linecap:round"
       x="80.433334"
       y="62.607033"
       id="text68-1-63"><tspan
         sodipodi:role="line"
         id="tspan68-8-16"
         style="font-style:normal;font-variant:normal;font-weight:normal;font-stretch:normal;font-size:6.35px;font-family:'JF Dot jiskan24';-inkscape-font-specification:'JF Dot jiskan24';fill:#ff6600;stroke-width:0.529167"
         x="80.433334"
         y="62.607033">9</tspan></text></g></svg>
